<svg width="54" height="54" viewBox="0 0 54 54" fill="none" xmlns="http://www.w3.org/2000/svg">
<circle cx="27" cy="27" r="22" fill="#D9D9D9"/>
<g clip-path="url(#clip0_50_29)">
<path d="M37.2781 17.2652C34.343 14.7973 29.8082 15.168 27 18.027C24.1918 15.168 19.657 14.7922 16.7219 17.2652C12.9031 20.4797 13.4617 25.7203 16.1836 28.4981L25.0906 37.5727C25.5984 38.0906 26.2789 38.3801 27 38.3801C27.7262 38.3801 28.4016 38.0957 28.9094 37.5777L37.8164 28.5031C40.5332 25.7254 41.102 20.4848 37.2781 17.2652ZM36.0797 26.7867L27.1727 35.8613C27.0508 35.9832 26.9492 35.9832 26.8274 35.8613L17.9203 26.7867C16.0668 24.8977 15.691 21.3227 18.291 19.134C20.2664 17.4735 23.3133 17.7223 25.2227 19.6672L27 21.4801L28.7773 19.6672C30.6969 17.7121 33.7438 17.4735 35.709 19.1289C38.3039 21.3176 37.918 24.9129 36.0797 26.7867Z" fill="#302E2E"/>
</g>
<defs>
<clipPath id="clip0_50_29">
<rect width="26" height="26" fill="white" transform="translate(14 14)"/>
</clipPath>
</defs>
</svg>
