<svg width="26" height="24" viewBox="0 0 26 24" fill="none" xmlns="http://www.w3.org/2000/svg">
<path d="M23.2781 2.26525C20.343 -0.20272 15.8082 0.167983 13 3.02697C10.1918 0.167983 5.65704 -0.207798 2.72188 2.26525C-1.09687 5.4797 -0.538275 10.7203 2.1836 13.4981L11.0906 22.5727C11.5984 23.0906 12.2789 23.3801 13 23.3801C13.7262 23.3801 14.4016 23.0957 14.9094 22.5777L23.8164 13.5031C26.5332 10.7254 27.102 5.48478 23.2781 2.26525ZM22.0797 11.7867L13.1727 20.8613C13.0508 20.9832 12.9492 20.9832 12.8274 20.8613L3.92032 11.7867C2.0668 9.89767 1.69102 6.32267 4.29102 4.134C6.26641 2.47345 9.31329 2.72228 11.2227 4.6672L13 6.48009L14.7773 4.6672C16.6969 2.71212 19.7438 2.47345 21.709 4.12892C24.3039 6.31759 23.918 9.9129 22.0797 11.7867Z" fill="#302E2E"/>
</svg>
